<?xml version="1.0" encoding="utf-8"?>
<!-- Generator: Adobe Illustrator 24.3.0, SVG Export Plug-In . SVG Version: 6.00 Build 0)  -->
<svg version="1.1" id="Слой_1" xmlns="http://www.w3.org/2000/svg" xmlns:xlink="http://www.w3.org/1999/xlink" x="0px" y="0px"
	 viewBox="0 0 128 28" style="enable-background:new 0 0 128 28;" xml:space="preserve">
<style type="text/css">
	.st0{fill:#76B900;}
	.st1{fill:#FFFFFF;}
</style>
<g>
	<path class="st0" d="M14,0h100c7.7,0,14,6.3,14,14l0,0c0,7.7-6.3,14-14,14H14C6.3,28,0,21.7,0,14l0,0C0,6.3,6.3,0,14,0z"/>
	<path class="st1" d="M11.9,18.4V9.2h2.2v6h0.1l3.5-6h2.3v9.1h-2.2v-5.9h0l-3.5,5.9H11.9z"/>
	<path class="st1" d="M21.7,18.4v-6.4h4.7v1.6h-2.6v4.8H21.7z"/>
	<path class="st1" d="M27.5,21.4v-9.5h2v0.8h0c0.2-0.3,0.5-0.5,0.8-0.7c0.4-0.2,0.8-0.3,1.2-0.3c0.9,0,1.6,0.3,2.2,1
		c0.6,0.7,0.8,1.4,0.8,2.4c0,0.9-0.3,1.8-0.8,2.4c-0.5,0.7-1.3,1-2.2,1c-0.4,0-0.8-0.1-1.1-0.2c-0.4-0.2-0.6-0.4-0.8-0.7h0v3.8H27.5
		z M31,16.8c0.5,0,0.8-0.2,1.1-0.5c0.3-0.3,0.4-0.7,0.4-1.2c0-0.4-0.1-0.8-0.4-1.1c-0.3-0.3-0.6-0.5-1.1-0.5c-0.5,0-0.8,0.2-1.1,0.5
		c-0.3,0.3-0.4,0.7-0.4,1.1c0,0.4,0.1,0.8,0.4,1.2C30.2,16.6,30.6,16.8,31,16.8z"/>
	<path class="st1" d="M37.8,18.5c-0.4,0-0.7-0.1-1.1-0.2c-0.3-0.1-0.6-0.3-0.9-0.7c-0.3-0.3-0.4-0.7-0.4-1.2c0-1.4,1.4-2.2,4.1-2.2
		v-0.1c0-0.3-0.1-0.5-0.3-0.7c-0.2-0.2-0.5-0.2-0.8-0.2c-0.6,0-1.1,0.2-1.6,0.7l-1.1-1.1c0.8-0.7,1.7-1.1,2.8-1.1
		c1.1,0,1.8,0.3,2.3,0.8c0.5,0.5,0.7,1.4,0.7,2.6v3.2h-1.9v-0.7h0c-0.2,0.3-0.4,0.5-0.7,0.6C38.6,18.4,38.2,18.5,37.8,18.5z
		 M38.4,17.1c0.4,0,0.7-0.1,1-0.3c0.2-0.2,0.3-0.6,0.3-1v-0.2h-0.3c-1.3,0-2,0.3-2,0.9c0,0.2,0.1,0.4,0.3,0.5
		C37.9,17,38.1,17.1,38.4,17.1z"/>
	<path class="st1" d="M44.5,18.4v-4.8h-1.9v-1.6h5.9v1.6h-1.9v4.8H44.5z"/>
	<path class="st1" d="M49.6,18.4v-6.4h2.1V14H53c0.8,0,1.4,0.2,1.9,0.5c0.5,0.3,0.7,0.9,0.7,1.6c0,0.7-0.2,1.3-0.7,1.6
		c-0.5,0.4-1.1,0.5-1.9,0.5H49.6z M51.7,17h0.9c0.6,0,1-0.3,1-0.8c0-0.5-0.3-0.8-1-0.8h-0.9V17z"/>
	<path class="st1" d="M63.3,18.6c-1,0-1.9-0.3-2.6-0.9c-0.7-0.6-1-1.4-1-2.5c0-1,0.3-1.8,1-2.5c0.7-0.6,1.5-0.9,2.6-0.9
		c0.5,0,0.9,0.1,1.3,0.2c0.4,0.2,0.8,0.4,1,0.6L64.5,14c-0.1-0.2-0.3-0.3-0.5-0.4c-0.2-0.1-0.4-0.1-0.6-0.1c-0.4,0-0.8,0.2-1.1,0.5
		c-0.3,0.3-0.4,0.7-0.4,1.2c0,0.5,0.1,0.8,0.4,1.2c0.3,0.3,0.6,0.5,1.1,0.5c0.5,0,0.9-0.2,1.1-0.5l1.2,1.4
		C65.1,18.3,64.4,18.6,63.3,18.6z"/>
	<path class="st1" d="M99.3,17.1c0,0.2,0,0.3-0.1,0.5c-0.1,0.1-0.2,0.3-0.3,0.4c-0.1,0.1-0.3,0.2-0.4,0.3c-0.1,0.1-0.3,0.1-0.5,0.1
		c-0.3,0-0.6-0.1-0.9-0.3c-0.1-0.1-0.2-0.2-0.3-0.4c-0.1-0.1-0.1-0.3-0.1-0.5s0-0.3,0.1-0.5c0.1-0.1,0.1-0.3,0.3-0.4
		c0.1-0.1,0.3-0.2,0.4-0.3c0.2-0.1,0.5-0.1,0.7-0.1c0.2,0,0.5,0.1,0.6,0.3c0.1,0.1,0.2,0.2,0.3,0.4C99.3,16.8,99.3,16.9,99.3,17.1z"
		/>
	<path class="st1" d="M77.3,18.2c-0.6,0.1-1.2,0.2-1.9,0.2c-0.7,0-1.3-0.1-1.9-0.3c-0.6-0.2-1.1-0.5-1.5-0.9c-0.4-0.4-0.8-0.9-1-1.4
		c-0.2-0.6-0.4-1.2-0.4-1.9c0-0.7,0.1-1.3,0.4-1.9c0.2-0.6,0.6-1,1-1.4c0.4-0.4,0.9-0.7,1.5-0.9c0.6-0.2,1.2-0.3,1.9-0.3
		c0.7,0,1.3,0.1,1.9,0.3c0.6,0.2,1.1,0.5,1.4,0.8l-1.3,1.5c-0.2-0.3-0.5-0.4-0.8-0.6c-0.4-0.2-0.7-0.2-1.1-0.2c-0.4,0-0.7,0.1-1,0.2
		c-0.3,0.1-0.6,0.3-0.8,0.6c-0.2,0.3-0.4,0.5-0.5,0.9c-0.1,0.3-0.2,0.7-0.2,1.1s0.1,0.7,0.2,1.1c0.1,0.3,0.3,0.6,0.5,0.9
		c0.2,0.3,0.5,0.4,0.8,0.6c0.4,0.1,0.7,0.2,1.1,0.2c0.2,0,0.5,0,0.7-0.1c0.2,0,0.4-0.1,0.6-0.2v-1.6h-1.7V13h3.6v4.6
		C78.3,17.9,77.8,18.1,77.3,18.2z M82.6,11.2V13H86v1.7h-3.4v3.4h-2.1V9.4h5.8v1.8H82.6z M93.2,18.2l-3.5-5.7h0l0,5.7h-2V9.5h2.4
		l3.5,5.7h0l0-5.7h2v8.7H93.2z M105.2,18.2l-1.9-3.5h-0.7v3.5h-2.1V9.5h3.3c0.4,0,0.8,0,1.2,0.1c0.4,0.1,0.7,0.2,1.1,0.4
		c0.3,0.2,0.6,0.5,0.8,0.8c0.2,0.3,0.3,0.8,0.3,1.3c0,0.6-0.2,1.1-0.5,1.5c-0.3,0.4-0.8,0.7-1.3,0.9l2.3,3.7L105.2,18.2L105.2,18.2z
		 M105.1,12.1c0-0.2,0-0.4-0.1-0.5c-0.1-0.1-0.2-0.2-0.3-0.3c-0.1-0.1-0.3-0.1-0.5-0.1c-0.2,0-0.3,0-0.5,0h-1.1v2h1
		c0.2,0,0.4,0,0.5,0c0.2,0,0.3-0.1,0.5-0.1c0.1-0.1,0.3-0.2,0.4-0.3C105.1,12.5,105.1,12.3,105.1,12.1z M115.8,16.3
		c-0.2,0.4-0.4,0.8-0.8,1.1c-0.3,0.3-0.7,0.6-1.2,0.7c-0.5,0.2-1,0.3-1.5,0.3c-0.6,0-1.1-0.1-1.5-0.3c-0.4-0.2-0.8-0.4-1.2-0.7
		c-0.3-0.3-0.6-0.7-0.7-1.1c-0.2-0.5-0.3-0.9-0.3-1.4V9.5h2.1v5.3c0,0.2,0,0.5,0.1,0.7c0.1,0.2,0.1,0.4,0.3,0.6
		c0.1,0.2,0.3,0.3,0.5,0.4c0.2,0.1,0.5,0.1,0.8,0.1s0.6,0,0.8-0.1c0.2-0.1,0.4-0.2,0.5-0.4c0.1-0.2,0.2-0.4,0.3-0.6
		c0.1-0.2,0.1-0.4,0.1-0.7V9.5h2.1v5.4C116.1,15.4,116,15.9,115.8,16.3z"/>
</g>
</svg>
